#!OML:ASF F:\VICON\USERDATA\INSTALL\rory3\rory3.ASF
:FULLY-SPECIFIED
:DEGREES
18
root 1.146422485618314 18.139687477436535 -11.82698993007425 -2.0087219603280895 -3.8441847958349626 -2.03514014519129
lfemur -16.747294217553964 -2.2313908759017136 -19.89559987837405
ltibia 18.544307229691015
lfoot 0.46502976468469104 -2.7023474983473657
ltoes -1.4908629118602024
rfemur 2.6425596775153473 4.99552807786817 25.510700247991963
rtibia 52.25539098000603
rfoot 16.642173830803138 1.0449862285590408
rtoes 8.031063113784592
lowerback 8.664065242968688 2.023601954286588 2.7839264756669766
upperback -0.3223626582935387 3.025792657222251 0.8691240530133286
thorax -5.099006589299064 1.4315825871116004 -1.046792005816155
lowerneck -17.027696435408743 -3.2087130570696423 -1.825162594356737
upperneck 22.696582037881395 -4.075054817538395 0.3347951297906404
head 10.09108424897547 -1.9984218779066987 -0.1316820654365514
lclavicle -2.7971981472530934e-15 -4.160076361964552e-16
lhumerus -38.60758637660644 9.87028270005888 79.61161996028162
lradius 18.10891544921226
lwrist -1.0797216922697483
lhand -25.56020781660201 21.026007300238348
lfingers 7.1250199999999975
lthumb 0.9705011831497311 51.003507277277656
rclavicle -2.7971981472530934e-15 -4.160076361964552e-16
rhumerus -28.658498658268833 -17.94830013386071 -79.42479886971151
rradius 25.550397674835715
rwrist 5.960560648578679
rhand -17.69069882932043 26.473582678762657
rfingers 7.1250199999999975
rthumb 8.568851169416797 -3.332527334279308
19
root 1.1862915352013048 18.208983603871697 -10.928290329456734 -2.3716390933895073 -3.2936765143904014 -0.7265103746606247
lfemur -13.603796339901422 -2.163651134592927 -22.13169665037221
ltibia 19.68770659953863
lfoot -2.2723340343530487 -2.143068276884308
ltoes -2.444281557533793
rfemur -4.005625823428922 4.359920359916714 23.804502772579976
rtibia 62.672985052970134
rfoot 10.100380696819999 -3.1455659274075902
rtoes 7.032844650128082
lowerback 9.474974977420148 1.7742634486475533 1.2516599870784006
upperback -0.2857006195404731 2.541124530516878 0.6831069586989365
thorax -5.591654999974718 1.225224312658868 -0.34952088633077183
lowerneck -16.656401568920455 -3.0817964356549266 -1.768453306743762
upperneck 21.47319582121939 -3.9166975651370515 0.38926753991732943
head 9.584817651481414 -1.9209853818997709 -0.08241841870477801
lclavicle -2.7971981595341233e-15 -4.160076167795146e-16
lhumerus -37.26098850077514 6.826208445986102 81.1567111823787
lradius 20.273410812104196
lwrist 0.8556739580669737
lhand -25.69690712643235 23.78409936310993
lfingers 7.1250199999999975
lthumb 0.8385258730836139 53.762199341508456
rclavicle -2.7971981595341233e-15 -4.160076167795146e-16
rhumerus -29.77189561637022 -18.307199535621066 -79.20149962144953
rradius 24.718800217199526
rwrist 5.633311459596265
rhand -17.42470107707866 17.91411905489743
rfingers 7.1250199999999975
rthumb 8.825568921470689 -11.88138089779806
20
root 1.2046010987293858 18.200584073394708 -10.085090704175114 -2.808375643299249 -2.498138997868629 -0.003077119967337616
lfemur -10.779998246402103 -2.5566096339242064 -23.37699485267503
ltibia 20.343906237892725
lfoot -4.790531089675494 -1.4353592620409112
ltoes 1.4077629706562544
rfemur -10.637701335275318 3.3137041161899443 22.775704294849437
rtibia 68.88458151891473
rfoot 2.4226387550855364 -7.906917014931281
rtoes 5.108247612247318
lowerback 9.679112393183624 1.3749058421182956 0.30100716563755225
upperback 0.3626973800249907 1.8977970170471545 0.687555913120822
thorax -5.065017388879169 0.9368827237424173 0.2833704991153767
lowerneck -17.406891192673378 -3.0133782569817877 -1.6320950196884754
upperneck 21.119799802772153 -3.786679821027285 0.17235988877676056
head 9.590437502705866 -1.871817606736281 -0.17165496738430178
lclavicle -2.7971981874458775e-15 -4.1600762281451624e-16
lhumerus -34.93309217287691 6.00997998668088 81.47270938714388
lradius 21.773507598370877
lwrist 2.446976737306639
lhand -27.10360002429877 19.067012937754974
lfingers 7.1250199999999975
lthumb -0.5201580240570483 49.04611290800032
rclavicle -2.7971981874458775e-15 -4.1600762281451624e-16
rhumerus -29.306296888426978 -20.560795779162817 -78.5035019712621
rradius 22.835805973898708
rwrist 9.412722093129993
rhand -17.225802757827196 20.47520817074313
rfingers 7.1250199999999975
rthumb 9.017497240852515 -9.312061848616747
21
root 1.0754084541153885 18.07318623348151 1.9801523847515146 -3.7347759834592873 -2.788931237576614 1.1476834741022781
lfemur -6.812549247258884 -2.944010555020594 -25.81257511933252
ltibia 26.27813736601381
lfoot -9.827685148810245 -1.4174672395167207
ltoes -0.5875273768920888
rfemur -18.572084977288547 1.873886234825262 21.576235336529216
rtibia 62.054060074823816
rfoot -2.362968109218821 -6.255148071460691
rtoes 6.3315174062039645
lowerback 10.063496299110948 0.9735985370249647 -1.045063949100528
upperback 0.44234204708837177 1.195935390040685 0.34163505183897014
thorax -5.0997740716033455 0.6209781169436484 0.8006275041853088
lowerneck -16.64795543965313 -2.7584992124360808 -1.6878046343902078
upperneck 21.41532003510852 -3.4641294005664354 0.2486320468067016
head 9.583541164137078 -1.7232695764828705 -0.049597817005225336
lclavicle -3.4336852382918638e-15 -8.405519840340119e-16
lhumerus -33.16305272969138 3.3716162919881354 82.06975904745862
lradius 22.668104182026337
lwrist 3.309996000903057
lhand -25.985418327019637 24.533067168983074
lfingers 7.1250199999999975
lthumb 0.5598876153646718 54.496008986268
rclavicle -3.4336852382918638e-15 -8.405519840340119e-16
rhumerus -28.148783629240707 -20.186200866382656 -78.19051754000506
rradius 23.454882875669043
rwrist 8.717510850815193
rhand -16.784942947281166 22.05941701608094
rfingers 7.1250199999999975
rthumb 9.442755852386432 -8.070168702754698
22
root 0.9948094599116717 18.05002876773495 2.542373659956443 -3.808018827496567 -2.165749004381496 1.6299191346318906
lfemur -3.939376375766666 -2.7543854052269534 -26.987136093628465
ltibia 26.1228951683615
lfoot -12.037214299205242 0.15581471272662917
ltoes -0.2987299568551971
rfemur -23.635593999343254 0.9918373047320959 21.37309255367756
rtibia 59.68847128088424
rfoot -5.891174822529001 -6.531464342725465
rtoes 3.9720423141899315
lowerback 10.290539811365576 0.5086988406717269 -1.7071634897265369
upperback 0.5801634734928174 0.49528138564856483 0.4929217860294113
thorax -5.09602047822176 0.29177451640928637 1.422381849370172
lowerneck -16.477896096646855 -2.733547518702285 -1.9605304011190319
upperneck 21.486602358213375 -3.4123669484099124 0.2900246761800165
head 9.588855552067809 -1.7072070099121281 0.009666365129780252
lclavicle -3.1562283076389854e-15 -6.554849422592091e-16
lhumerus -30.676270535751843 0.8585704603367985 82.5249015285581
lradius 23.930428448775046
lwrist 3.9541263724033437
lhand -26.449343058337522 24.388490173705016
lfingers 7.1250199999999975
lthumb 0.11183990589071624 54.35840270992905
rclavicle -3.1562283076389854e-15 -6.554849422592091e-16
rhumerus -28.681385356155424 -19.90035626734083 -78.33630029405144
rradius 23.758854920922204
rwrist 7.582869472802851
rhand -16.918495582077167 22.18965172830341
rfingers 7.1250199999999975
rthumb 9.313907331922652 -7.7842515691267895
23
root 0.8881339754022004 18.010783683984155 1.468142860971552 -3.5852628878417248 -1.5088584863882175 1.9174638002850073
lfemur -2.338154918518815 -2.577566986191273 -27.563239656633574
ltibia 26.08466457389101
lfoot -13.833549792106425 0.7682489768787262
ltoes 0.3646398349935125
rfemur -26.123342582779554 0.9899083678740523 20.66483074376612
rtibia 52.90893107059871
rfoot -7.60753602750536 -8.363107489302212
rtoes 2.512520742924246
lowerback 10.323823953840591 0.155894206505926 -2.402058238994732
upperback 0.6336533687773825 -0.04845192213727034 0.575792708146253
thorax -5.059510783982718 0.038799124157525955 1.847521378203941
lowerneck -16.562752733944897 -2.820817420800947 -2.1140648244015567
upperneck 21.36207769206351 -3.5307270609484287 0.42987240052383857
head 9.563075322915726 -1.753180944553322 0.055014777945061114
lclavicle -3.3319769979145652e-15 -7.727113894431303e-16
lhumerus -29.203538126956833 -1.1933932935406304 82.75152802050344
lradius 25.206327494384066
lwrist 4.678708667466349
lhand -26.409053017946 25.23740745958286
lfingers 7.1250199999999975
lthumb 0.15072881626336165 55.20912178701335
rclavicle -3.3319769979145652e-15 -7.727113894431303e-16
rhumerus -28.996908625656403 -19.19531662182413 -78.6198723632686
rradius 24.00783473690688
rwrist 6.704311944475618
rhand -16.970818635773124 22.488221891300036
rfingers 7.1250199999999975
rthumb 9.263424823373345 -7.412636819541348
